<?xml version="1.0" encoding="UTF-8" standalone="no"?>
<!-- Created with Inkscape (http://www.inkscape.org/) -->

<svg
   xmlns:dc="http://purl.org/dc/elements/1.1/"
   xmlns:cc="http://creativecommons.org/ns#"
   xmlns:rdf="http://www.w3.org/1999/02/22-rdf-syntax-ns#"
   xmlns:svg="http://www.w3.org/2000/svg"
   xmlns="http://www.w3.org/2000/svg"
   xmlns:sodipodi="http://sodipodi.sourceforge.net/DTD/sodipodi-0.dtd"
   xmlns:inkscape="http://www.inkscape.org/namespaces/inkscape"
   version="1.1"
   id="svg2"
   xml:space="preserve"
   width="1540.4504"
   height="1086.7471"
   viewBox="0 0 1540.4504 1086.747"
   sodipodi:docname="avatar.svg"
   inkscape:version="0.92.3 (2405546, 2018-03-11)"><metadata
     id="metadata8"><rdf:RDF><cc:Work
         rdf:about=""><dc:format>image/svg+xml</dc:format><dc:type
           rdf:resource="http://purl.org/dc/dcmitype/StillImage" /><dc:title></dc:title></cc:Work></rdf:RDF></metadata><defs
     id="defs6" /><sodipodi:namedview
     pagecolor="#ffffff"
     bordercolor="#666666"
     borderopacity="1"
     objecttolerance="10"
     gridtolerance="10"
     guidetolerance="10"
     inkscape:pageopacity="0"
     inkscape:pageshadow="2"
     inkscape:window-width="1920"
     inkscape:window-height="1025"
     id="namedview4"
     showgrid="false"
     inkscape:measure-start="2059.66,-143.955"
     inkscape:measure-end="2059.66,-149.492"
     inkscape:zoom="0.18061223"
     inkscape:cx="749.67933"
     inkscape:cy="538.61757"
     inkscape:window-x="1920"
     inkscape:window-y="27"
     inkscape:window-maximized="1"
     inkscape:current-layer="g10" /><g
     id="g10"
     inkscape:groupmode="layer"
     inkscape:label="ink_ext_XXXXXX"
     transform="matrix(1.3333333,0,0,-1.3333333,-188.52244,1207.5581)"><g
       id="g12"
       transform="scale(0.1)"><path
         d="m 11387.2,4592.61 c -2135.02,-15.58 -1316.3,-3050.16 -1316.3,-3050.16 0,0 157.9,-66.61 440.2,-123.87 -114.5,175.78 -181.5,385.06 -181.5,609.34 v 870.69 c 0,617.01 504.8,1121.84 1121.8,1121.84 617.1,0 1121.9,-504.83 1121.9,-1121.84 v -870.69 c 0,-207.39 -57.2,-401.98 -156.4,-569.12 139.4,31.26 283.2,69.32 431.2,115.75 0,0 738.5,3034.11 -1460.9,3018.06"
         style="fill:#231f20;fill-opacity:1;fill-rule:nonzero;stroke:none"
         id="path14"
         inkscape:connector-curvature="0" /><path
         d="m 10905.6,2607.75 c 79.8,0 144.5,-64.69 144.5,-144.49 0,-79.79 -64.7,-144.48 -144.5,-144.48 -79.8,0 -144.5,64.69 -144.5,144.48 0,79.8 64.7,144.49 144.5,144.49 z m 1123.8,0 c 79.8,0 144.5,-64.69 144.5,-144.49 0,-79.79 -64.7,-144.48 -144.5,-144.48 -79.8,0 -144.5,64.69 -144.5,144.48 0,79.8 64.7,144.49 144.5,144.49 z m 543.9,290.86 c 0,617.01 -504.8,1121.84 -1121.9,1121.84 -617,0 -1121.8,-504.83 -1121.8,-1121.84 v -870.69 c 0,-224.28 67,-433.56 181.5,-609.34 200.6,-307.8 547.6,-512.498 940.3,-512.498 409.7,0 769.6,222.618 965.5,552.718 99.2,167.14 156.4,361.73 156.4,569.12 v 870.69"
         style="fill:#f79517;fill-opacity:1;fill-rule:nonzero;stroke:none"
         id="path16"
         inkscape:connector-curvature="0" /><path
         d="m 10905.6,2318.78 c 79.8,0 144.5,64.69 144.5,144.48 0,79.8 -64.7,144.49 -144.5,144.49 -79.8,0 -144.5,-64.69 -144.5,-144.49 0,-79.79 64.7,-144.48 144.5,-144.48"
         style="fill:#231f20;fill-opacity:1;fill-rule:nonzero;stroke:none"
         id="path18"
         inkscape:connector-curvature="0" /><path
         d="m 12029.4,2318.78 c 79.8,0 144.5,64.69 144.5,144.48 0,79.8 -64.7,144.49 -144.5,144.49 -79.8,0 -144.5,-64.69 -144.5,-144.49 0,-79.79 64.7,-144.48 144.5,-144.48"
         style="fill:#231f20;fill-opacity:1;fill-rule:nonzero;stroke:none"
         id="path20"
         inkscape:connector-curvature="0" /><path
         d="m 10905.6,6559.96 c 79.8,0 144.5,-64.69 144.5,-144.48 0,-79.79 -64.7,-144.48 -144.5,-144.48 -79.8,0 -144.5,64.69 -144.5,144.48 0,79.79 64.7,144.48 144.5,144.48 z m 1123.8,0 c 79.8,0 144.5,-64.69 144.5,-144.48 0,-79.79 -64.7,-144.48 -144.5,-144.48 -79.8,0 -144.5,64.69 -144.5,144.48 0,79.79 64.7,144.48 144.5,144.48 z m -578,-1701.67 c 617.1,0 1121.9,504.83 1121.9,1121.85 v 870.69 c 0,534.38 -378.8,984.35 -881,1095.36 v -567.5 c 0,-132.44 -108.4,-240.8 -240.9,-240.8 -132.4,0 -240.8,108.36 -240.8,240.8 v 567.5 c -502.2,-111.01 -881,-560.98 -881,-1095.36 v -870.69 c 0,-617.02 504.8,-1121.85 1121.8,-1121.85"
         style="fill:#f79517;fill-opacity:1;fill-rule:nonzero;stroke:none"
         id="path22"
         inkscape:connector-curvature="0" /><path
         d="m 10905.6,6271 c 79.8,0 144.5,64.69 144.5,144.48 0,79.79 -64.7,144.48 -144.5,144.48 -79.8,0 -144.5,-64.69 -144.5,-144.48 0,-79.79 64.7,-144.48 144.5,-144.48"
         style="fill:#231f20;fill-opacity:1;fill-rule:nonzero;stroke:none"
         id="path24"
         inkscape:connector-curvature="0" /><path
         d="m 12029.4,6271 c 79.8,0 144.5,64.69 144.5,144.48 0,79.79 -64.7,144.48 -144.5,144.48 -79.8,0 -144.5,-64.69 -144.5,-144.48 0,-79.79 64.7,-144.48 144.5,-144.48"
         style="fill:#231f20;fill-opacity:1;fill-rule:nonzero;stroke:none"
         id="path26"
         inkscape:connector-curvature="0" /><path
         d="m 11451.4,7137.89 c 132.5,0 240.9,108.36 240.9,240.8 v 567.5 363.6 c 0,132.44 -108.4,240.81 -240.9,240.81 -132.4,0 -240.8,-108.37 -240.8,-240.81 v -363.6 -567.5 c 0,-132.44 108.4,-240.8 240.8,-240.8"
         style="fill:#231f20;fill-opacity:1;fill-rule:nonzero;stroke:none"
         id="path28"
         inkscape:connector-curvature="0" /><path
         d="m 3686.23,2318.78 c -79.8,0 -144.48,64.69 -144.48,144.48 0,79.8 64.68,144.49 144.48,144.49 79.79,0 144.48,-64.69 144.48,-144.49 0,-79.79 -64.69,-144.48 -144.48,-144.48 z m -64.22,1069.82 c 0,0 -158.11,-1586.95 -1621.1,-1539.09 86.13,-532.99 551.08,-943.428 1107.39,-943.428 v 0 c 617.02,0 1121.85,504.828 1121.85,1121.838 v 445.77 c -244.75,21.56 -636.75,557.24 -608.14,914.91"
         style="fill:#f79517;fill-opacity:1;fill-rule:nonzero;stroke:none"
         id="path30"
         inkscape:connector-curvature="0" /><path
         d="m 3686.23,2607.75 c -79.8,0 -144.48,-64.69 -144.48,-144.49 0,-79.79 64.68,-144.48 144.48,-144.48 79.79,0 144.48,64.69 144.48,144.48 0,79.8 -64.69,144.49 -144.48,144.49"
         style="fill:#231f20;fill-opacity:1;fill-rule:nonzero;stroke:none"
         id="path32"
         inkscape:connector-curvature="0" /><path
         d="M 2963.82,4223.38 C 1294.26,4191.27 1213.99,1975.89 1615.33,1895.62 c 137.72,-27.54 265.94,-42.2 385.58,-46.11 1462.99,-47.86 1621.1,1539.09 1621.1,1539.09 -28.61,-357.67 363.39,-893.35 608.14,-914.91 29.88,-2.63 57.71,1.94 82.17,15.91 224.74,128.43 321.06,1765.89 -1348.5,1733.78"
         style="fill:#231f20;fill-opacity:1;fill-rule:nonzero;stroke:none"
         id="path34"
         inkscape:connector-curvature="0" /><path
         d="m 7857.8,2318.78 c -79.79,0 -144.48,64.69 -144.48,144.48 0,79.8 64.69,144.49 144.48,144.49 79.8,0 144.48,-64.69 144.48,-144.49 0,-79.79 -64.68,-144.48 -144.48,-144.48 z m 208.7,1342.73 C 7769.81,2862.73 6865.16,1886.11 6308.87,1468.44 c 194.53,-335.38 557.43,-562.358 971,-562.358 h 0.01 c 617.01,0 1121.84,504.828 1121.84,1121.838 v 870.69 c 0,307.92 -125.75,587.88 -328.41,791.12 -1.19,-9.61 -3.4,-19.04 -6.81,-28.22"
         style="fill:#f79517;fill-opacity:1;fill-rule:nonzero;stroke:none"
         id="path36"
         inkscape:connector-curvature="0" /><path
         d="m 7857.8,2607.75 c -79.79,0 -144.48,-64.69 -144.48,-144.49 0,-79.79 64.69,-144.48 144.48,-144.48 79.8,0 144.48,64.69 144.48,144.48 0,79.8 -64.68,144.49 -144.48,144.49"
         style="fill:#231f20;fill-opacity:1;fill-rule:nonzero;stroke:none"
         id="path38"
         inkscape:connector-curvature="0" /><path
         d="m 8066.5,3661.51 c 3.41,9.18 5.62,18.61 6.81,28.22 35.95,291.07 -928.38,754.96 -1612.16,164.42 -706.36,-610.03 -754.52,-2343.81 -593.98,-2568.56 46.42,-64.99 215.39,12.93 441.7,182.85 556.29,417.67 1460.94,1394.29 1757.63,2193.07"
         style="fill:#231f20;fill-opacity:1;fill-rule:nonzero;stroke:none"
         id="path40"
         inkscape:connector-curvature="0" /><path
         d="m 3686.23,6271 c -79.8,0 -144.48,64.69 -144.48,144.48 0,79.79 64.68,144.48 144.48,144.48 79.79,0 144.48,-64.69 144.48,-144.48 0,-79.79 -64.69,-144.48 -144.48,-144.48 z m -1123.75,0 c -79.79,0 -144.48,64.69 -144.48,144.48 0,79.79 64.69,144.48 144.48,144.48 79.8,0 144.48,-64.69 144.48,-144.48 0,-79.79 -64.68,-144.48 -144.48,-144.48 z m 1573.25,593.98 c -240.81,0 -465.56,619.59 -465.56,619.59 -522.02,-629.61 -1215.39,-698.44 -1624.24,-275.17 -38.34,-112.75 -59.47,-233.28 -59.47,-358.57 v -870.69 c 0,-617.02 504.83,-1121.85 1121.84,-1121.85 v 0 c 617.02,0 1121.85,504.83 1121.85,1121.85 v 870.69 c 0,23.51 -0.98,46.79 -2.42,69.96 -24.52,-35.23 -55.64,-55.81 -92,-55.81"
         style="fill:#f79517;fill-opacity:1;fill-rule:nonzero;stroke:none"
         id="path42"
         inkscape:connector-curvature="0" /><path
         d="m 2562.48,6559.96 c -79.79,0 -144.48,-64.69 -144.48,-144.48 0,-79.79 64.69,-144.48 144.48,-144.48 79.8,0 144.48,64.69 144.48,144.48 0,79.79 -64.68,144.48 -144.48,144.48"
         style="fill:#231f20;fill-opacity:1;fill-rule:nonzero;stroke:none"
         id="path44"
         inkscape:connector-curvature="0" /><path
         d="m 3686.23,6559.96 c -79.8,0 -144.48,-64.69 -144.48,-144.48 0,-79.79 64.68,-144.48 144.48,-144.48 79.79,0 144.48,64.69 144.48,144.48 0,79.79 -64.69,144.48 -144.48,144.48"
         style="fill:#231f20;fill-opacity:1;fill-rule:nonzero;stroke:none"
         id="path46"
         inkscape:connector-curvature="0" /><path
         d="m 2045.93,7209.4 c 408.85,-423.27 1102.22,-354.44 1624.24,275.17 0,0 224.75,-619.59 465.56,-619.59 36.36,0 67.48,20.58 92,55.81 137.78,198.03 63.02,867.02 -509.4,1047.84 -538.18,170 -1460.86,19.36 -1701.66,638.95 -240.81,619.59 -513.72,-116.17 -224.75,-968.11 59.78,-176.26 147.36,-319.65 254.01,-430.07"
         style="fill:#231f20;fill-opacity:1;fill-rule:nonzero;stroke:none"
         id="path48"
         inkscape:connector-curvature="0" /><path
         d="m 7857.8,6271 c -79.79,0 -144.48,64.69 -144.48,144.48 0,79.79 64.69,144.48 144.48,144.48 79.8,0 144.48,-64.69 144.48,-144.48 0,-79.79 -64.68,-144.48 -144.48,-144.48 z m -72.24,1260.2 c 0,0 115.38,-1523.86 -1621.4,-1476.92 -2.11,0.05 -4.04,0.28 -6.13,0.35 v -74.49 c 0,-617.02 504.83,-1121.85 1121.84,-1121.85 h 0.01 c 617.01,0 1121.84,504.83 1121.84,1121.85 v 138.9 c -51.48,5.97 -86.39,15.5 -86.39,15.5 0,0 -64.22,931.11 -529.77,1396.66"
         style="fill:#f79517;fill-opacity:1;fill-rule:nonzero;stroke:none"
         id="path50"
         inkscape:connector-curvature="0" /><path
         d="m 7857.8,6559.96 c -79.79,0 -144.48,-64.69 -144.48,-144.48 0,-79.79 64.69,-144.48 144.48,-144.48 79.8,0 144.48,64.69 144.48,144.48 0,79.79 -64.68,144.48 -144.48,144.48"
         style="fill:#231f20;fill-opacity:1;fill-rule:nonzero;stroke:none"
         id="path52"
         inkscape:connector-curvature="0" /><path
         d="m 8989.57,7499.09 c -64.21,321.07 -513.71,353.18 -513.71,353.18 0,0 208.7,401.34 -48.16,706.35 -256.86,305.02 -674.25,-48.16 -674.25,-48.16 0,0 0,529.77 -449.49,545.82 -449.5,16.05 -561.88,-449.5 -561.88,-449.5 0,0 -385.28,337.13 -754.51,0 -369.23,-337.12 48.16,-818.73 48.16,-818.73 0,0 -417.39,128.43 -545.82,-337.12 -128.43,-465.55 353.18,-658.19 353.18,-658.19 -287.94,-127.97 -272.85,-718.03 314.94,-738.11 2.09,-0.07 4.02,-0.3 6.13,-0.35 1736.78,-46.94 1621.4,1476.92 1621.4,1476.92 465.55,-465.55 529.77,-1396.66 529.77,-1396.66 0,0 34.91,-9.53 86.39,-15.5 124.35,-14.42 347.84,-7.57 427.32,208.15 112.37,305.01 -144.48,529.76 -144.48,529.76 0,0 369.23,321.07 305.01,642.14"
         style="fill:#231f20;fill-opacity:1;fill-rule:nonzero;stroke:none"
         id="path54"
         inkscape:connector-curvature="0" /></g></g></svg>