<?xml version="1.0" encoding="UTF-8" standalone="no"?>
<svg
   xmlns:dc="http://purl.org/dc/elements/1.1/"
   xmlns:cc="http://creativecommons.org/ns#"
   xmlns:rdf="http://www.w3.org/1999/02/22-rdf-syntax-ns#"
   xmlns:svg="http://www.w3.org/2000/svg"
   xmlns="http://www.w3.org/2000/svg"
   xmlns:xlink="http://www.w3.org/1999/xlink"
   xmlns:sodipodi="http://sodipodi.sourceforge.net/DTD/sodipodi-0.dtd"
   xmlns:inkscape="http://www.inkscape.org/namespaces/inkscape"
   id="svg9664"
   version="1.1"
   viewBox="0 0 4.5599848 6.3418756"
   height="6.3418756mm"
   width="4.5599847mm"
   sodipodi:docname="q-xs.svg"
   inkscape:version="0.92.3 (2405546, 2018-03-11)"
   inkscape:export-filename="/home/vince/image.png"
   inkscape:export-xdpi="96"
   inkscape:export-ydpi="96">
  <sodipodi:namedview
     pagecolor="#ffffff"
     bordercolor="#666666"
     borderopacity="1"
     objecttolerance="10"
     gridtolerance="10"
     guidetolerance="10"
     inkscape:pageopacity="0"
     inkscape:pageshadow="2"
     inkscape:window-width="1920"
     inkscape:window-height="1025"
     id="namedview824"
     showgrid="false"
     inkscape:zoom="19.167815"
     inkscape:cx="26.443368"
     inkscape:cy="3.0730066"
     inkscape:window-x="1920"
     inkscape:window-y="27"
     inkscape:window-maximized="1"
     inkscape:current-layer="layer1" />
  <defs
     id="defs9658">
    <pattern
       inkscape:collect="always"
       xlink:href="#Strips1_1"
       id="pattern2276"
       patternTransform="matrix(10,0,0,15.835558,0,-47.305011)" />
    <pattern
       inkscape:stockid="Stripes 1:1"
       id="Strips1_1"
       patternTransform="translate(0,0) scale(10,10)"
       height="1"
       width="2"
       patternUnits="userSpaceOnUse"
       inkscape:collect="always">
      <rect
         id="rect1558"
         height="2"
         width="1"
         y="-0.5"
         x="0"
         style="fill:black;stroke:none" />
    </pattern>
    <linearGradient
       id="linearGradient10227">
      <stop
         style="stop-color:#002547;stop-opacity:1;"
         offset="0"
         id="stop10244" />
      <stop
         style="stop-color:#d92139;stop-opacity:1"
         offset="1"
         id="stop10246" />
    </linearGradient>
    <linearGradient
       spreadMethod="pad"
       gradientUnits="userSpaceOnUse"
       y2="-1.0238283"
       x2="231.56044"
       y1="96.105209"
       x1="23.871485"
       id="linearGradient10229"
       xlink:href="#linearGradient10227" />
    <linearGradient
       inkscape:collect="always"
       xlink:href="#linearGradient10227"
       id="linearGradient886"
       gradientUnits="userSpaceOnUse"
       x1="23.871485"
       y1="96.105209"
       x2="231.56044"
       y2="-1.0238283"
       spreadMethod="pad"
       gradientTransform="matrix(0.07724543,0,0,0.07724543,52.051455,79.208708)" />
  </defs>
  <metadata
     id="metadata9661">
    <rdf:RDF>
      <cc:Work
         rdf:about="">
        <dc:format>image/svg+xml</dc:format>
        <dc:type
           rdf:resource="http://purl.org/dc/dcmitype/StillImage" />
        <dc:title />
      </cc:Work>
    </rdf:RDF>
  </metadata>
  <g
     transform="translate(-52.072426,-79.497535)"
     id="layer1">
    <path
       id="path9628"
       d="m 56.081671,85.806495 c -0.113357,-0.05589 -0.158247,-0.235003 -0.0874,-0.348732 0.11984,-0.19237 0.406422,-0.09962 0.406422,0.131535 0,0.183815 -0.162426,0.294397 -0.319025,0.217197 z m -0.547986,-0.753061 c -0.193255,-0.198991 -0.249389,-0.307192 -0.312262,-0.601895 -0.11971,-0.561117 -0.218533,-0.736818 -0.491239,-0.873393 -0.144708,-0.07247 -0.268203,-0.07684 -0.394394,-0.01395 -0.203758,0.101537 -0.363512,0.42109 -0.294186,0.588459 0.02853,0.06887 0.06555,0.08408 0.174564,0.07174 0.117045,-0.01324 0.199468,0.01799 0.245122,0.09287 0.05668,0.09296 0.03677,0.201209 -0.05229,0.284381 -0.121021,0.113023 -0.340316,0.02162 -0.445635,-0.185731 -0.135056,-0.265901 -0.04263,-0.645402 0.227688,-0.934851 0.296665,-0.317666 0.686455,-0.339933 0.981117,-0.05605 0.10026,0.09659 0.167031,0.210856 0.195501,0.334554 0.0099,0.04288 0.02704,0.260541 0.03816,0.483699 0.01988,0.399083 0.02102,0.407472 0.06955,0.511168 0.03227,0.06896 0.08989,0.148121 0.166598,0.228875 l 0.117264,0.123447 -0.03757,0.03999 c -0.02067,0.022 -0.04229,0.03999 -0.04805,0.03999 -0.0057,0 -0.06874,-0.05999 -0.139939,-0.133306 z m -1.928369,-0.585678 c -0.324399,-0.06529 -0.598065,-0.217958 -0.835434,-0.466033 -0.149769,-0.156525 -0.225006,-0.266588 -0.32154,-0.470371 -0.320087,-0.675711 -0.164063,-1.523618 0.372771,-2.025799 0.432037,-0.404151 0.998471,-0.536618 1.55172,-0.362889 0.518359,0.162773 0.926972,0.603822 1.083613,1.169628 0.05208,0.188126 0.07158,0.555707 0.03999,0.753785 -0.01935,0.121301 -0.09872,0.392869 -0.128128,0.438403 -0.01115,0.01727 -0.03701,-0.0013 -0.112278,-0.0808 -0.09456,-0.09983 -0.09741,-0.105359 -0.08653,-0.167862 0.02401,-0.137867 0.01008,-0.430857 -0.0272,-0.572193 -0.137948,-0.523117 -0.543802,-0.879151 -1.003762,-0.880544 -0.256893,-7.73e-4 -0.472006,0.084 -0.663875,0.261642 -0.27234,0.252145 -0.402344,0.563913 -0.402344,0.964879 0,0.243088 0.03819,0.413966 0.137249,0.614014 0.118557,0.239436 0.292908,0.417044 0.512456,0.522027 0.105612,0.0505 0.124915,0.06588 0.12561,0.100066 4.57e-4,0.02221 0.01802,0.08221 0.03903,0.133306 l 0.03821,0.09291 -0.107265,-0.0016 c -0.059,-8.34e-4 -0.154527,-0.01103 -0.212293,-0.02266 z m 0.93718,-0.135151 c 0,-0.0077 -0.01781,-0.04016 -0.03959,-0.07225 l -0.03959,-0.05835 0.116348,-0.06063 c 0.07914,-0.04124 0.156405,-0.100918 0.24161,-0.186612 l 0.125263,-0.12598 0.03261,0.05284 c 0.06384,0.103443 0.06117,0.124664 -0.02566,0.20327 -0.09017,0.08164 -0.226278,0.176562 -0.325512,0.22702 -0.07563,0.03845 -0.08547,0.04084 -0.08547,0.02068 z"
       style="fill:url(#linearGradient886);fill-opacity:1;stroke:#7ace60;stroke-width:0.01615827;stroke-opacity:1"
       inkscape:connector-curvature="0"
       sodipodi:nodetypes="ssssccccccccssccsssccsccccscssccscccsccccccccscccccsccs" />
    <rect
       style="opacity:1;fill:url(#pattern2276);fill-opacity:1;stroke:#d92139;stroke-width:0.37751824;stroke-miterlimit:4;stroke-dasharray:none;stroke-opacity:0;paint-order:markers stroke fill"
       id="rect826"
       width="4.1824665"
       height="1.3770978"
       x="52.261185"
       y="79.686295" />
  </g>
</svg>
