<?xml version="1.0" encoding="UTF-8" standalone="no"?>
<svg
   xmlns:dc="http://purl.org/dc/elements/1.1/"
   xmlns:cc="http://creativecommons.org/ns#"
   xmlns:rdf="http://www.w3.org/1999/02/22-rdf-syntax-ns#"
   xmlns:svg="http://www.w3.org/2000/svg"
   xmlns="http://www.w3.org/2000/svg"
   xmlns:xlink="http://www.w3.org/1999/xlink"
   xmlns:sodipodi="http://sodipodi.sourceforge.net/DTD/sodipodi-0.dtd"
   xmlns:inkscape="http://www.inkscape.org/namespaces/inkscape"
   id="svg9664"
   version="1.1"
   viewBox="0 0 53.51497 61.874302"
   height="61.874302mm"
   width="53.514969mm"
   sodipodi:docname="q.svg"
   inkscape:version="0.92.3 (2405546, 2018-03-11)"
   inkscape:export-filename="/home/vince/image.png"
   inkscape:export-xdpi="96"
   inkscape:export-ydpi="96">
  <sodipodi:namedview
     pagecolor="#ffffff"
     bordercolor="#666666"
     borderopacity="1"
     objecttolerance="10"
     gridtolerance="10"
     guidetolerance="10"
     inkscape:pageopacity="0"
     inkscape:pageshadow="2"
     inkscape:window-width="1920"
     inkscape:window-height="1052"
     id="namedview824"
     showgrid="false"
     inkscape:zoom="1.6942115"
     inkscape:cx="337.25037"
     inkscape:cy="119.0556"
     inkscape:window-x="0"
     inkscape:window-y="0"
     inkscape:window-maximized="1"
     inkscape:current-layer="layer1" />
  <defs
     id="defs9658">
    <linearGradient
       id="linearGradient10227">
      <stop
         style="stop-color:#002547;stop-opacity:1;"
         offset="0"
         id="stop10244" />
      <stop
         style="stop-color:#d92139;stop-opacity:1"
         offset="1"
         id="stop10246" />
    </linearGradient>
    <linearGradient
       spreadMethod="pad"
       gradientUnits="userSpaceOnUse"
       y2="-1.0238283"
       x2="231.56044"
       y1="96.105209"
       x1="23.871485"
       id="linearGradient10229"
       xlink:href="#linearGradient10227" />
    <linearGradient
       inkscape:collect="always"
       xlink:href="#linearGradient10227"
       id="linearGradient886"
       gradientUnits="userSpaceOnUse"
       x1="23.871485"
       y1="96.105209"
       x2="231.56044"
       y2="-1.0238283"
       spreadMethod="pad" />
  </defs>
  <metadata
     id="metadata9661">
    <rdf:RDF>
      <cc:Work
         rdf:about="">
        <dc:format>image/svg+xml</dc:format>
        <dc:type
           rdf:resource="http://purl.org/dc/dcmitype/StillImage" />
        <dc:title></dc:title>
      </cc:Work>
    </rdf:RDF>
  </metadata>
  <g
     transform="translate(-2.8938057,-23.96511)"
     id="layer1">
    <path
       id="path9628"
       d="m 52.174166,85.413284 c -1.467492,-0.72345 -2.048628,-3.04229 -1.131427,-4.5146 1.551428,-2.49038 5.261446,-1.28966 5.261446,1.70282 0,2.37962 -2.10273,3.8112 -4.130019,2.81178 z m -7.094092,-9.74895 c -2.501831,-2.57608 -3.228531,-3.97682 -4.042469,-7.79198 -1.549731,-7.26407 -2.829075,-9.53866 -6.359453,-11.30671 -1.873352,-0.93818 -3.472088,-0.99477 -5.10572,-0.1807 -2.637808,1.31448 -4.705934,5.45133 -3.808458,7.61804 0.369288,0.89154 0.848519,1.08851 2.259861,0.92883 1.515233,-0.17143 2.582263,0.23282 3.173282,1.2022 0.733694,1.2034 0.476027,2.60481 -0.676901,3.68154 -1.566695,1.46316 -4.405636,0.27995 -5.769075,-2.40443 -1.74839,-3.44229 -0.551815,-8.35521 2.947606,-12.10236 3.840539,-4.11241 8.886667,-4.40068 12.701281,-0.72558 1.297948,1.25048 2.162347,2.7297 2.530905,4.33107 0.127749,0.55507 0.350031,3.3729 0.493958,6.26184 0.257391,5.16642 0.272165,5.27503 0.900362,6.61745 0.417789,0.89279 1.163705,1.91754 2.156743,2.96295 l 1.518066,1.59813 -0.486381,0.51773 c -0.267509,0.28475 -0.547406,0.51773 -0.621994,0.51773 -0.07458,0 -0.889813,-0.77659 -1.811613,-1.72575 z M 20.11589,68.082304 c -4.19959,-0.84533 -7.742402,-2.82163 -10.8153087,-6.03315 -1.93888,-2.02633 -2.912881,-3.45118 -4.162575,-6.0893 -4.14377377,-8.74759 -2.1239205,-19.72438 4.825789,-26.22549 5.5930477,-5.23203 12.9259607,-6.94692 20.0881887,-4.69786 6.710535,2.10721 12.000343,7.81692 14.02818,15.14171 0.674237,2.43542 0.92667,7.19403 0.517654,9.75831 -0.250477,1.57033 -1.277964,5.08597 -1.658714,5.67545 -0.144421,0.22359 -0.479109,-0.0172 -1.453517,-1.04591 -1.224183,-1.29234 -1.261093,-1.36395 -1.120227,-2.1731 0.310716,-1.78479 0.130448,-5.57776 -0.35205,-7.40746 -1.785847,-6.77215 -7.039933,-11.38128 -12.99445,-11.39931 -3.325678,-0.01 -6.110474,1.08746 -8.594366,3.38716 -3.52564,3.26421 -5.20864,7.30028 -5.20864,12.49107 0,3.14696 0.494476,5.35911 1.77679,7.94888 1.534801,3.09968 3.791907,5.39895 6.63413,6.75803 1.36723,0.65378 1.617111,0.85285 1.626118,1.29543 0.0059,0.28763 0.233229,1.06421 0.505278,1.72574 l 0.494635,1.2028 -1.388619,-0.0197 c -0.763741,-0.0108 -2.000473,-0.14281 -2.748296,-0.29333 z m 12.132493,-1.74963 c 0,-0.099 -0.23067,-0.5199 -0.5126,-0.93534 l -0.5126,-0.75536 1.506209,-0.78491 c 1.024539,-0.5339 2.024787,-1.30646 3.127831,-2.41583 l 1.621624,-1.63091 0.422227,0.68412 c 0.826502,1.33915 0.791827,1.61387 -0.332157,2.63148 -1.167367,1.05689 -2.929344,2.28573 -4.214001,2.93895 -0.979057,0.49782 -1.106533,0.52867 -1.106533,0.2678 z"
       style="fill:url(#linearGradient886);fill-opacity:1;stroke:#7ace60;stroke-width:0.20918088;stroke-opacity:1"
       inkscape:connector-curvature="0"
       sodipodi:nodetypes="ssssccccccccssccsssccsccccscssccscccsccccccccscccccsccs" />
  </g>
</svg>
