<?xml version="1.0" encoding="UTF-8" standalone="no"?>
<!-- Created with Inkscape (http://www.inkscape.org/) -->

<svg
   xmlns:dc="http://purl.org/dc/elements/1.1/"
   xmlns:cc="http://creativecommons.org/ns#"
   xmlns:rdf="http://www.w3.org/1999/02/22-rdf-syntax-ns#"
   xmlns:svg="http://www.w3.org/2000/svg"
   xmlns="http://www.w3.org/2000/svg"
   xmlns:sodipodi="http://sodipodi.sourceforge.net/DTD/sodipodi-0.dtd"
   xmlns:inkscape="http://www.inkscape.org/namespaces/inkscape"
   version="1.1"
   id="svg2"
   xml:space="preserve"
   width="349.30505"
   height="530.59814"
   viewBox="0 0 349.30504 530.59811"
   sodipodi:docname="avatar1.svg"
   inkscape:version="0.92.3 (2405546, 2018-03-11)"><metadata
     id="metadata8"><rdf:RDF><cc:Work
         rdf:about=""><dc:format>image/svg+xml</dc:format><dc:type
           rdf:resource="http://purl.org/dc/dcmitype/StillImage" /><dc:title></dc:title></cc:Work></rdf:RDF></metadata><defs
     id="defs6" /><sodipodi:namedview
     pagecolor="#ffffff"
     bordercolor="#666666"
     borderopacity="1"
     objecttolerance="10"
     gridtolerance="10"
     guidetolerance="10"
     inkscape:pageopacity="0"
     inkscape:pageshadow="2"
     inkscape:window-width="1920"
     inkscape:window-height="1025"
     id="namedview4"
     showgrid="false"
     inkscape:measure-start="2059.66,-143.955"
     inkscape:measure-end="2059.66,-149.492"
     inkscape:zoom="0.18061223"
     inkscape:cx="715.8735"
     inkscape:cy="11.656621"
     inkscape:window-x="1920"
     inkscape:window-y="27"
     inkscape:window-maximized="1"
     inkscape:current-layer="g10" /><g
     id="g10"
     inkscape:groupmode="layer"
     inkscape:label="ink_ext_XXXXXX"
     transform="matrix(1.3333333,0,0,-1.3333333,-222.32827,1178.3701)"><g
       id="g12"
       transform="scale(0.1)"><path
         d="m 3686.23,6271 c -79.8,0 -144.48,64.69 -144.48,144.48 0,79.79 64.68,144.48 144.48,144.48 79.79,0 144.48,-64.69 144.48,-144.48 0,-79.79 -64.69,-144.48 -144.48,-144.48 z m -1123.75,0 c -79.79,0 -144.48,64.69 -144.48,144.48 0,79.79 64.69,144.48 144.48,144.48 79.8,0 144.48,-64.69 144.48,-144.48 0,-79.79 -64.68,-144.48 -144.48,-144.48 z m 1573.25,593.98 c -240.81,0 -465.56,619.59 -465.56,619.59 -522.02,-629.61 -1215.39,-698.44 -1624.24,-275.17 -38.34,-112.75 -59.47,-233.28 -59.47,-358.57 v -870.69 c 0,-617.02 504.83,-1121.85 1121.84,-1121.85 v 0 c 617.02,0 1121.85,504.83 1121.85,1121.85 v 870.69 c 0,23.51 -0.98,46.79 -2.42,69.96 -24.52,-35.23 -55.64,-55.81 -92,-55.81"
         style="fill:#f79517;fill-opacity:1;fill-rule:nonzero;stroke:none"
         id="path42"
         inkscape:connector-curvature="0" /><path
         d="m 2562.48,6559.96 c -79.79,0 -144.48,-64.69 -144.48,-144.48 0,-79.79 64.69,-144.48 144.48,-144.48 79.8,0 144.48,64.69 144.48,144.48 0,79.79 -64.68,144.48 -144.48,144.48"
         style="fill:#231f20;fill-opacity:1;fill-rule:nonzero;stroke:none"
         id="path44"
         inkscape:connector-curvature="0" /><path
         d="m 3686.23,6559.96 c -79.8,0 -144.48,-64.69 -144.48,-144.48 0,-79.79 64.68,-144.48 144.48,-144.48 79.79,0 144.48,64.69 144.48,144.48 0,79.79 -64.69,144.48 -144.48,144.48"
         style="fill:#231f20;fill-opacity:1;fill-rule:nonzero;stroke:none"
         id="path46"
         inkscape:connector-curvature="0" /><path
         d="m 2045.93,7209.4 c 408.85,-423.27 1102.22,-354.44 1624.24,275.17 0,0 224.75,-619.59 465.56,-619.59 36.36,0 67.48,20.58 92,55.81 137.78,198.03 63.02,867.02 -509.4,1047.84 -538.18,170 -1460.86,19.36 -1701.66,638.95 -240.81,619.59 -513.72,-116.17 -224.75,-968.11 59.78,-176.26 147.36,-319.65 254.01,-430.07"
         style="fill:#231f20;fill-opacity:1;fill-rule:nonzero;stroke:none"
         id="path48"
         inkscape:connector-curvature="0" /></g></g></svg>